<svg width="25" height="22" viewBox="0 0 25 22" fill="none" xmlns="http://www.w3.org/2000/svg">
<path d="M12.5 19L12.1675 19.9431L12.5 20.0603L12.8325 19.9431L12.5 19ZM12.5 19C12.8325 19.9431 12.8328 19.943 12.8332 19.9429L12.8341 19.9425L12.8367 19.9416L12.8447 19.9388L12.8719 19.9289C12.8949 19.9206 12.9276 19.9085 12.9694 19.8928C13.053 19.8615 13.1729 19.8154 13.3239 19.7548C13.6258 19.6335 14.053 19.4534 14.564 19.2147C15.5831 18.7385 16.949 18.0226 18.3216 17.0663C21.0131 15.1912 24 12.1982 24 8.07143C24 3.88245 20.9467 0.999853 17.1666 1C15.0903 1.00008 13.6763 1.91282 12.7997 2.82518C12.6918 2.9375 12.592 3.04973 12.5 3.16017C12.408 3.0497 12.3082 2.93744 12.2003 2.82509C11.3237 1.91268 9.90967 0.999919 7.83329 1C4.0533 1.00015 1 3.88238 1 8.07143C1 12.1982 3.98689 15.1912 6.67837 17.0663C8.05101 18.0226 9.41692 18.7385 10.436 19.2147C10.947 19.4534 11.3742 19.6335 11.6761 19.7548C11.8271 19.8154 11.947 19.8615 12.0306 19.8928C12.0724 19.9085 12.1051 19.9206 12.1281 19.9289L12.1553 19.9388L12.1633 19.9416L12.1659 19.9425L12.1668 19.9429C12.1672 19.943 12.1675 19.9431 12.5 19Z" stroke="#2A2A2A" stroke-width="2"/>
</svg>
