<svg width="19" height="19" viewBox="0 0 19 19" fill="none" xmlns="http://www.w3.org/2000/svg">
<path d="M15.7734 8.56641H14.6133C13.8633 11.0039 11.4844 12.2227 7.47656 12.2227H5.21484V18H1.74609V8.56641H0.210938V7.01953H1.74609V6.02344H0.210938V4.47656H1.74609V0.820312H7.3125C9.30469 0.820312 10.8477 1.04297 11.9414 1.48828C13.3555 2.05859 14.2617 3.05469 14.6602 4.47656H15.7734V6.02344H14.8945C14.9023 6.19531 14.9062 6.33984 14.9062 6.45703C14.9062 6.70703 14.9023 6.89453 14.8945 7.01953H15.7734V8.56641ZM10.3828 4.47656C9.6875 3.97656 8.52344 3.72656 6.89062 3.72656H5.21484V4.47656H10.3828ZM11.332 6.50391C11.332 6.33984 11.3203 6.17969 11.2969 6.02344H5.21484V7.01953H11.2969C11.3203 6.87891 11.332 6.70703 11.332 6.50391ZM10.3125 8.56641H5.21484V9.30469H7.11328C8.53516 9.30469 9.60156 9.05859 10.3125 8.56641Z" fill="#EB5749"/>
</svg>
