<svg width="40" height="40" viewBox="0 0 40 40" fill="none" xmlns="http://www.w3.org/2000/svg">
<circle cx="20" cy="20" r="20" fill="#E4BD87"/>
<path d="M23 12.5571C23 11.7857 22.9927 10.6778 22.6 9.85717C22.1745 8.96819 21.1872 8.52371 20.2 8.52372M17 26.4429C17 27.2143 17.0072 28.3223 17.4 29.1429C17.8831 30.1523 19.0907 30.5887 20.2 30.4519M20.2 8.52372C19.2127 8.52372 18.2255 8.96823 17.8 9.85722C17.4072 10.6778 17.3566 11.6544 17.4 12.5572C17.6772 18.3165 22.3229 20.6837 22.6 26.4429C22.6435 27.3458 22.5927 28.3223 22.2 29.1429C21.8322 29.9114 21.0445 30.3477 20.2 30.4519M20.2 8.52372V6M20.2 30.4519V33" stroke="white" stroke-width="4" stroke-linecap="square" stroke-linejoin="round"/>
</svg>
