<svg width="44" height="48" viewBox="0 0 44 48" fill="none" xmlns="http://www.w3.org/2000/svg">
<path d="M5.5 36.4891C6.05228 36.4891 6.5 36.0414 6.5 35.4891V25.4924C6.5 25.4938 6.50006 25.4934 6.50043 25.4912C6.50388 25.4706 6.53423 25.2894 6.79166 24.9593C7.06376 24.6104 7.54448 24.1564 8.33899 23.648C9.92935 22.6304 12.6799 21.4565 17.2124 20.4715C21.9278 19.4467 25.1902 17.8541 27.3605 16.2346C28.6173 15.2968 29.5259 14.3353 30.129 13.4575C31.3276 15.3095 32.8023 17.9401 34.079 20.9585C35.7185 24.8347 37 29.2769 37 33.4898C37 34.042 37.4477 34.4898 38 34.4898H39.9902C40.5268 34.4898 40.9677 34.0663 40.9894 33.5301C40.9899 33.5168 40.9904 33.5035 40.9909 33.4901H42C42.5523 33.4901 43 33.0424 43 32.4901V26.492C43 25.9398 42.5523 25.492 42 25.492H41C40.9999 17.1376 38.9608 11.7682 36.2758 8.46674C33.9091 5.55662 31.0752 4.30249 28.8504 4.04873C28.4245 2.77048 27.1667 2.04686 26.0886 1.65888C24.6942 1.15704 23.07 1 22 1C13.7269 1 8.43367 4.03023 5.22792 7.92485C2.05583 11.7786 1 16.3889 1 19.4943V30.4907C1 31.6428 1.31028 33.0684 1.98316 34.2383C2.66013 35.4152 3.81149 36.4891 5.5 36.4891ZM24 38.988C24 37.3315 22.6571 35.9886 21.0006 35.9886H20.7494C19.231 35.9886 18 37.2196 18 38.7381C18 40.2565 19.231 41.4875 20.7494 41.4875H21.5005C22.8809 41.4875 24 40.3684 24 38.988Z" fill="#99B082" stroke="#99B082" stroke-width="2" stroke-linecap="round" stroke-linejoin="round"/>
</svg>
