<svg width="14" height="15" viewBox="0 0 14 15" fill="none" xmlns="http://www.w3.org/2000/svg">
<path d="M12.5 13.5V6.72924H10.9977L3 6.72933L1.5 6.72924V13.5H12.5Z" fill="#d6d6d6"/>
<path d="M1.5 6.72924V13.5H12.5V6.72924H10.9977M1.5 6.72924C1.5 6.72924 2.14795 6.72933 3 6.72933M1.5 6.72924L3 6.72933M3 6.72933C6.12419 6.72933 10.9977 6.72924 10.9977 6.72924M3 6.72933C3 6.51614 3.00862 5.74933 3 5.5C3.01674 2.96809 4 1 7 1C10 1 11 2.63628 11 5.5C10.9988 5.62747 10.9977 6.61342 10.9977 6.72924M3 6.72933L10.9977 6.72924" stroke="#d6d6d6" stroke-width="2" stroke-linejoin="round"/>
</svg>
