<svg width="21" height="26" viewBox="0 0 21 26" fill="none" xmlns="http://www.w3.org/2000/svg">
<path d="M15.2222 6.88889C15.2222 9.58895 13.108 11.5 10.5 11.5C7.89199 11.5 5.77778 9.58895 5.77778 6.88889C5.77778 4.18883 7.89199 2 10.5 2C13.108 2 15.2222 4.18883 15.2222 6.88889Z" fill="#949494"/>
<path d="M19 24H2C2 20.5821 3.88209 17.6194 6.63183 16.1619C9.69861 16.7668 11.3925 16.7659 14.3682 16.1619C17.1179 17.6194 19 20.5821 19 24Z" fill="#949494"/>
<path d="M15.2222 6.88889C15.2222 9.58895 13.108 11.5 10.5 11.5C7.89199 11.5 5.77778 9.58895 5.77778 6.88889C5.77778 4.18883 7.89199 2 10.5 2C13.108 2 15.2222 4.18883 15.2222 6.88889Z" stroke="#949494" stroke-width="3" stroke-linejoin="round"/>
<path d="M19 24H2C2 20.5821 3.88209 17.6194 6.63183 16.1619C9.69861 16.7668 11.3925 16.7659 14.3682 16.1619C17.1179 17.6194 19 20.5821 19 24Z" stroke="#949494" stroke-width="3" stroke-linejoin="round"/>
</svg>
