<svg width="22" height="20" viewBox="0 0 22 20" fill="none" xmlns="http://www.w3.org/2000/svg">
<path d="M2.33131 12.0001L1 4.19036H17.6038L16.1678 12.0001H13.0545H5.44444H2.33131Z" fill="#EB5749"/>
<path d="M2.33131 12.0001L1 4.19036H17.6038M2.33131 12.0001C3.72 12.0001 4.27424 12.0001 5.44444 12.0001M2.33131 12.0001H5.44444M17.6038 4.19036L16.1678 12.0001M17.6038 4.19036L17.6667 2.55561L21 2.00006M16.1678 12.0001C14.7791 12.0001 14.2247 12.0001 13.0545 12.0001M16.1678 12.0001H13.0545M16.1678 12.0001L15.6759 14.7778H2.66667M5.44444 12.0001C8.11274 12.0001 10.3862 12.0001 13.0545 12.0001M5.44444 12.0001H13.0545" stroke="#EB5749" stroke-width="1.5" stroke-linecap="round" stroke-linejoin="round"/>
<path d="M14.8888 17C14.8888 17.6137 14.3914 18.1111 13.7777 18.1111C13.1641 18.1111 12.6666 17.6137 12.6666 17C12.6666 16.3864 13.1641 15.8889 13.7777 15.8889C14.3914 15.8889 14.8888 16.3864 14.8888 17Z" fill="#EB5749"/>
<path d="M5.44439 17C5.44439 17.6137 4.94693 18.1111 4.33328 18.1111C3.71963 18.1111 3.22217 17.6137 3.22217 17C3.22217 16.3864 3.71963 15.8889 4.33328 15.8889C4.94693 15.8889 5.44439 16.3864 5.44439 17Z" fill="#EB5749"/>
</svg>
