<svg width="200" height="200" viewBox="0 0 200 200" fill="none" xmlns="http://www.w3.org/2000/svg">
<rect width="200" height="200" fill="#D9D9D9"/>
<path opacity="0.5" fill-rule="evenodd" clip-rule="evenodd" d="M50 65C50 56.7157 56.7157 50 65 50H135C143.284 50 150 56.7157 150 65V135C150 143.284 143.284 150 135 150H65C56.7157 150 50 143.284 50 135V65ZM87.1201 107.836C85.5411 106.309 82.9807 106.511 81.6609 108.267L67.3962 127.251C64.9198 130.547 67.2712 135.255 71.3935 135.255H131.646C135.481 135.255 137.889 131.115 135.992 127.782L118.675 97.3457C116.86 94.1564 112.342 93.9431 110.235 96.9472L103.709 106.253C99.841 111.767 91.9611 112.519 87.1201 107.836V107.836ZM80.0813 91.8231C87.7145 91.8231 93.9024 85.7015 93.9024 78.1501C93.9024 70.5988 87.7145 64.4772 80.0813 64.4772C72.4481 64.4772 66.2602 70.5988 66.2602 78.1501C66.2602 85.7015 72.4481 91.8231 80.0813 91.8231Z" fill="#2A2A2A"/>
</svg>
