<svg width="72" height="45" viewBox="0 0 72 45" fill="none" xmlns="http://www.w3.org/2000/svg">
<path d="M46.4286 13.4C46.4286 10.6386 48.6671 8.4 51.4286 8.4H56.1096C57.5803 8.4 58.9765 9.04754 59.9265 10.1703L70.4455 22.6018C71.2094 23.5046 71.6286 24.6489 71.6286 25.8315V36.6C71.6286 38.2569 70.2854 39.6 68.6286 39.6C66.9717 39.6 65.6883 38.1898 64.9598 36.7017C63.8866 34.5096 61.6339 33 59.0286 33C56.4233 33 54.1705 34.5096 53.0973 36.7017C52.3688 38.1898 51.0854 39.6 49.4286 39.6C47.7717 39.6 46.4286 38.2569 46.4286 36.6V13.4Z" fill="#B0C29E"/>
<path d="M64.4286 39.6C64.4286 42.5823 62.0109 45 59.0286 45C56.0462 45 53.6286 42.5823 53.6286 39.6C53.6286 36.6177 56.0462 34.2 59.0286 34.2C62.0109 34.2 64.4286 36.6177 64.4286 39.6Z" fill="#B8CBD0"/>
<path d="M19.8 39.6C19.8 42.5823 17.3823 45 14.4 45C11.4177 45 9 42.5823 9 39.6C9 36.6177 11.4177 34.2 14.4 34.2C17.3823 34.2 19.8 36.6177 19.8 39.6Z" fill="#B8CBD0"/>
<path d="M9 17.5252C9.49625 19.5155 11.2431 20.7938 12.9017 20.3802C14.5604 19.9667 15.5026 18.018 15.0064 16.0276C14.5101 14.0373 12.7633 12.759 11.1047 13.1726C9.44604 13.5861 8.50375 15.5348 9 17.5252Z" fill="#EC704B"/>
<path d="M36.0665 17.5252C35.5702 19.5155 33.8233 20.7938 32.1647 20.3802C30.5061 19.9667 29.5638 18.018 30.0601 16.0276C30.5563 14.0373 32.3032 12.759 33.9618 13.1726C35.6204 13.5861 36.5627 15.5348 36.0665 17.5252Z" fill="#EC704B"/>
<path fill-rule="evenodd" clip-rule="evenodd" d="M44.4 5C44.4 2.23858 42.1614 0 39.4 0H5C2.23858 0 0 2.23858 0 5V35.7C0 37.8539 1.74609 39.6 3.9 39.6C6.05391 39.6 7.71688 37.7105 8.91842 35.9229C10.1033 34.16 12.1162 33 14.4 33C16.2887 33 17.992 33.7933 19.1951 35.0649C21.0929 37.0708 23.2386 39.6 26 39.6H39.4C42.1614 39.6 44.4 37.3614 44.4 34.6V5ZM27.5332 28.5297C28.8353 27.9287 29.8243 26.8966 30.3904 25.3154C31.5049 22.2025 29.1013 19.8068 26.4618 17.8154C26.3746 17.7496 26.2894 17.6849 26.2056 17.6213L26.2046 17.6206C24.9964 16.7034 24.1089 16.0297 22.5332 16.0297C20.9576 16.0297 20.0701 16.7034 18.8618 17.6206C18.7778 17.6844 18.6922 17.7494 18.6047 17.8154C15.9652 19.8068 13.5616 22.2025 14.6761 25.3154C15.2422 26.8966 16.2312 27.9287 17.5332 28.5297C18.6047 29.0243 19.4837 28.6382 20.4083 28.2322C21.0651 27.9437 21.745 27.6451 22.5332 27.6451C23.3215 27.6451 24.0013 27.9437 24.6582 28.2322C25.5828 28.6382 26.4618 29.0243 27.5332 28.5297ZM14.7456 11.5447C15.075 13.8886 16.9255 15.5661 18.8787 15.2916C20.832 15.0171 22.1484 12.8945 21.819 10.5506C21.4895 8.20667 19.6391 6.5291 17.6858 6.80361C15.7326 7.07812 14.4162 9.20076 14.7456 11.5447ZM26.1877 15.2737C28.141 15.5482 29.9915 13.8707 30.3209 11.5268C30.6503 9.18287 29.3339 7.06023 27.3807 6.78571C25.4274 6.5112 23.5769 8.18877 23.2475 10.5327C22.9181 12.8766 24.2345 14.9992 26.1877 15.2737Z" fill="#EC704B"/>
</svg>
