<svg width="47" height="35" viewBox="0 0 47 35" fill="none" xmlns="http://www.w3.org/2000/svg">
<path d="M1.18531 18.0764C1.88005 20.8629 4.32567 22.6525 6.64774 22.0735C8.9698 21.4946 10.289 18.7663 9.59426 15.9799C8.89951 13.1934 6.4539 11.4038 4.13183 11.9828C1.80976 12.5617 0.490559 15.29 1.18531 18.0764Z" fill="white"/>
<path d="M9.22917 9.70371C9.69035 12.9852 12.281 15.3338 15.0155 14.9494C17.7501 14.5651 19.593 11.5934 19.1318 8.31198C18.6707 5.03052 16.08 2.68192 13.3455 3.06623C10.6109 3.45055 8.76799 6.42225 9.22917 9.70371Z" fill="white"/>
<path d="M31.0345 9.67866C30.5733 12.9601 27.9827 15.3087 25.2481 14.9244C22.5136 14.5401 20.6707 11.5684 21.1318 8.28692C21.593 5.00546 24.1837 2.65687 26.9182 3.04118C29.6528 3.4255 31.4957 6.3972 31.0345 9.67866Z" fill="white"/>
<path d="M31.1318 28.9828C30.3393 31.1965 28.9547 32.6414 27.1318 33.4828C24.5659 34.6671 22.7885 32.2444 20.1318 32.2444C17.4752 32.2444 15.6977 34.6671 13.1318 33.4828C11.309 32.6414 9.92436 31.1965 9.13182 28.9828C7.57155 24.6247 10.9366 21.2708 14.6318 18.4828C16.5153 17.0617 17.7725 15.9828 20.1318 15.9828C22.4912 15.9828 23.7484 17.0617 25.6318 18.4828C29.3271 21.2708 32.6921 24.6247 31.1318 28.9828Z" fill="white"/>
<path d="M1.18531 18.0764C1.88005 20.8629 4.32567 22.6525 6.64774 22.0735C8.9698 21.4946 10.289 18.7663 9.59426 15.9799C8.89951 13.1934 6.4539 11.4038 4.13183 11.9828C1.80976 12.5617 0.490559 15.29 1.18531 18.0764Z" stroke="white"/>
<path d="M9.22917 9.70371C9.69035 12.9852 12.281 15.3338 15.0155 14.9494C17.7501 14.5651 19.593 11.5934 19.1318 8.31198C18.6707 5.03052 16.08 2.68192 13.3455 3.06623C10.6109 3.45055 8.76799 6.42225 9.22917 9.70371Z" stroke="white"/>
<path d="M31.0345 9.67866C30.5733 12.9601 27.9827 15.3087 25.2481 14.9244C22.5136 14.5401 20.6707 11.5684 21.1318 8.28692C21.593 5.00546 24.1837 2.65687 26.9182 3.04118C29.6528 3.4255 31.4957 6.3972 31.0345 9.67866Z" stroke="white"/>
<path d="M31.1318 28.9828C30.3393 31.1965 28.9547 32.6414 27.1318 33.4828C24.5659 34.6671 22.7885 32.2444 20.1318 32.2444C17.4752 32.2444 15.6977 34.6671 13.1318 33.4828C11.309 32.6414 9.92436 31.1965 9.13182 28.9828C7.57155 24.6247 10.9366 21.2708 14.6318 18.4828C16.5153 17.0617 17.7725 15.9828 20.1318 15.9828C22.4912 15.9828 23.7484 17.0617 25.6318 18.4828C29.3271 21.2708 32.6921 24.6247 31.1318 28.9828Z" stroke="white"/>
<path d="M35.4243 14.6142C36.0536 15.9249 36.9188 16.9691 38.0291 17.5349C36.9021 18.1899 36.0392 19.3827 35.4194 20.7543C35.0337 21.6077 34.7277 22.5579 34.5 23.5486C34.2723 22.5579 33.9663 21.6077 33.5806 20.7543C32.9608 19.3827 32.0979 18.1899 30.9709 17.5349C32.0812 16.9691 32.9464 15.9249 33.5757 14.6142C33.9645 13.8046 34.2718 12.8793 34.5 11.8719C34.7282 12.8793 35.0355 13.8046 35.4243 14.6142Z" fill="white" stroke="white"/>
<path d="M39.6794 3.39736C39.9101 3.85032 40.2126 4.24481 40.5889 4.52906C40.2017 4.85406 39.8992 5.29719 39.6741 5.76684C39.6116 5.89722 39.5536 6.03231 39.5 6.17115C39.4464 6.03231 39.3884 5.89722 39.3259 5.76684C39.1008 5.29719 38.7983 4.85406 38.4111 4.52906C38.7874 4.24481 39.0899 3.85032 39.3206 3.39736C39.3852 3.27046 39.445 3.13781 39.5 3.00002C39.555 3.13781 39.6148 3.27046 39.6794 3.39736Z" fill="white" stroke="white"/>
<path d="M44.6794 11.3974C44.9101 11.8503 45.2126 12.2448 45.5889 12.5291C45.2017 12.8541 44.8992 13.2972 44.6741 13.7668C44.6116 13.8972 44.5536 14.0323 44.5 14.1711C44.4464 14.0323 44.3884 13.8972 44.3259 13.7668C44.1008 13.2972 43.7983 12.8541 43.4111 12.5291C43.7874 12.2448 44.0899 11.8503 44.3206 11.3974C44.3852 11.2705 44.445 11.1378 44.5 11C44.555 11.1378 44.6148 11.2705 44.6794 11.3974Z" fill="white" stroke="white"/>
</svg>
