<svg width="50" height="50" viewBox="0 0 50 50" fill="none" xmlns="http://www.w3.org/2000/svg">
<path d="M6.18531 25.0764C6.88005 27.8629 9.32567 29.6525 11.6477 29.0735C13.9698 28.4946 15.289 25.7663 14.5943 22.9799C13.8995 20.1934 11.4539 18.4038 9.13183 18.9828C6.80976 19.5617 5.49056 22.29 6.18531 25.0764Z" fill="white"/>
<path d="M14.2292 16.7037C14.6903 19.9852 17.281 22.3338 20.0155 21.9494C22.7501 21.5651 24.593 18.5934 24.1318 15.312C23.6707 12.0305 21.08 9.68192 18.3455 10.0662C15.6109 10.4505 13.768 13.4222 14.2292 16.7037Z" fill="white"/>
<path d="M44.0784 25.0764C43.3836 27.8629 40.938 29.6525 38.6159 29.0735C36.2939 28.4946 34.9747 25.7663 35.6694 22.9799C36.3641 20.1934 38.8098 18.4038 41.1318 18.9828C43.4539 19.5617 44.7731 22.29 44.0784 25.0764Z" fill="white"/>
<path d="M36.0345 16.6787C35.5733 19.9601 32.9827 22.3087 30.2481 21.9244C27.5136 21.5401 25.6707 18.5684 26.1318 15.2869C26.593 12.0055 29.1837 9.65687 31.9182 10.0412C34.6528 10.4255 36.4957 13.3972 36.0345 16.6787Z" fill="white"/>
<path d="M36.1318 35.9828C35.3393 38.1965 33.9547 39.6414 32.1318 40.4828C29.5659 41.6671 27.7885 39.2444 25.1318 39.2444C22.4752 39.2444 20.6977 41.6671 18.1318 40.4828C16.309 39.6414 14.9244 38.1965 14.1318 35.9828C12.5715 31.6247 15.9366 28.2708 19.6318 25.4828C21.5153 24.0617 22.7725 22.9828 25.1318 22.9828C27.4912 22.9828 28.7484 24.0617 30.6318 25.4828C34.3271 28.2708 37.6921 31.6247 36.1318 35.9828Z" fill="white"/>
</svg>
