<svg width="20" height="20" viewBox="0 0 20 20" fill="none" xmlns="http://www.w3.org/2000/svg">
<path d="M2.20016 17.0484V5.33325H17.8002V17.0484C17.8002 17.6007 17.3524 18.0484 16.8002 18.0484H3.20016C2.64788 18.0484 2.20016 17.6007 2.20016 17.0484Z" fill="#EB5749"/>
<path d="M17.8192 3.02861H2.18118C1.71302 3.02861 1.3335 2.64909 1.3335 2.18093C1.3335 1.71277 1.71302 1.33325 2.18118 1.33325H17.8192C18.2873 1.33325 18.6668 1.71277 18.6668 2.18093C18.6668 2.64909 18.2873 3.02861 17.8192 3.02861Z" fill="#EB5749"/>
<path d="M2.20016 17.0484V5.33325H17.8002V17.0484C17.8002 17.6007 17.3524 18.0484 16.8002 18.0484H3.20016C2.64788 18.0484 2.20016 17.6007 2.20016 17.0484Z" stroke="#EB5749"/>
<path d="M17.8192 3.02861H2.18118C1.71302 3.02861 1.3335 2.64909 1.3335 2.18093C1.3335 1.71277 1.71302 1.33325 2.18118 1.33325H17.8192C18.2873 1.33325 18.6668 1.71277 18.6668 2.18093C18.6668 2.64909 18.2873 3.02861 17.8192 3.02861Z" stroke="#EB5749"/>
</svg>
