<svg width="1917" height="71" viewBox="0 0 1917 71" fill="none" xmlns="http://www.w3.org/2000/svg">
<path d="M1 1.49918C214.644 46.1007 338.751 58.7123 557 57.9992C764.263 57.3219 879.436 2.59718 1083.05 1.49918H1Z" fill="white"/>
<path d="M1095.5 1.49918C1296.66 2.57907 1411.44 103.011 1607.5 57.9992C1669.72 43.7143 1699.65 3.44907 1760.26 1.49918H1095.5Z" fill="white"/>
<path d="M1769.5 1.49918C1830.97 3.42824 1916.5 57.9992 1916.5 57.9992V1.49918H1769.5Z" fill="white"/>
<path d="M1095.5 1.49918C1296.66 2.57907 1411.44 103.011 1607.5 57.9992C1669.72 43.7143 1699.65 3.44907 1760.26 1.49918M1095.5 1.49918H1083.05M1095.5 1.49918C1091.31 1.4767 1087.16 1.477 1083.05 1.49918M1095.5 1.49918H1760.26M1769.5 1.49918C1830.97 3.42824 1916.5 57.9992 1916.5 57.9992V1.49918H1769.5ZM1769.5 1.49918H1760.26M1769.5 1.49918C1766.34 1.40002 1763.26 1.40262 1760.26 1.49918M1083.05 1.49918C879.436 2.59718 764.263 57.3219 557 57.9992C338.751 58.7123 214.644 46.1007 1 1.49918H1083.05Z" stroke="white"/>
</svg>
